ISO-10303-21;
HEADER;
FILE_DESCRIPTION(('GAT demo: two offices, shared storey height, party wall with door'),'2;1');
FILE_NAME('model.ifc','2026-01-01T00:00:00',('GAT'),('GAT'),'gat v0','gat v0','');
FILE_SCHEMA(('IFC4'));
ENDSEC;
DATA;
#1=IFCPROJECT('GATPRJ0000000000000001',$,'GAT Demo Project',$,$,$,$,$,$);
#2=IFCSIUNIT(*,.LENGTHUNIT.,$,.METRE.);
#5=IFCBUILDING('GATBLD0000000000000005',$,'Demo Building',$,$,#10,$,$,$,$,$,$);
#10=IFCLOCALPLACEMENT($,#11);
#11=IFCAXIS2PLACEMENT3D(#12,$,$);
#12=IFCCARTESIANPOINT((0.,0.,0.));
#15=IFCBUILDINGSTOREY('GATSTY0000000000000015',$,'Level 1',$,$,#20,$,$,$,$);
#20=IFCLOCALPLACEMENT(#10,#21);
#21=IFCAXIS2PLACEMENT3D(#22,$,$);
#22=IFCCARTESIANPOINT((0.,0.,0.));
#27=IFCRELDEFINESBYPROPERTIES('GATRDP0000000000000027',$,$,$,(#15),#28);
#28=IFCELEMENTQUANTITY('GATQTO0000000000000028',$,'Qto_StoreyBaseQuantities',$,$,(#29));
#29=IFCQUANTITYLENGTH('ClearHeight',$,$,3.);
#30=IFCDIRECTION((0.,1.,0.));
#100=IFCWALLSTANDARDCASE('GATWAL0000000000000100',$,'Wall-South',$,$,#101,$,$,$);
#101=IFCLOCALPLACEMENT(#20,#102);
#102=IFCAXIS2PLACEMENT3D(#103,$,$);
#103=IFCCARTESIANPOINT((0.,-0.3,0.));
#110=IFCQUANTITYLENGTH('Length',$,$,9.2);
#111=IFCQUANTITYLENGTH('Width',$,$,0.3);
#112=IFCELEMENTQUANTITY('GATQTO0000000000000112',$,'Qto_WallBaseQuantities',$,$,(#110,#111));
#113=IFCRELDEFINESBYPROPERTIES('GATRDP0000000000000113',$,$,$,(#100),#112);
#114=IFCPROPERTYSINGLEVALUE('UnitCost',$,IFCREAL(320.),$);
#115=IFCPROPERTYSET('GATPST0000000000000115',$,'GAT_Material',$,(#114));
#116=IFCRELDEFINESBYPROPERTIES('GATRDP0000000000000116',$,$,$,(#100),#115);
#120=IFCWALLSTANDARDCASE('GATWAL0000000000000120',$,'Wall-North',$,$,#121,$,$,$);
#121=IFCLOCALPLACEMENT(#20,#122);
#122=IFCAXIS2PLACEMENT3D(#123,$,$);
#123=IFCCARTESIANPOINT((0.,4.,0.));
#130=IFCQUANTITYLENGTH('Length',$,$,9.2);
#131=IFCQUANTITYLENGTH('Width',$,$,0.3);
#132=IFCELEMENTQUANTITY('GATQTO0000000000000132',$,'Qto_WallBaseQuantities',$,$,(#130,#131));
#133=IFCRELDEFINESBYPROPERTIES('GATRDP0000000000000133',$,$,$,(#120),#132);
#134=IFCPROPERTYSINGLEVALUE('UnitCost',$,IFCREAL(320.),$);
#135=IFCPROPERTYSET('GATPST0000000000000135',$,'GAT_Material',$,(#134));
#136=IFCRELDEFINESBYPROPERTIES('GATRDP0000000000000136',$,$,$,(#120),#135);
#140=IFCWALLSTANDARDCASE('GATWAL0000000000000140',$,'Wall-West',$,$,#141,$,$,$);
#141=IFCLOCALPLACEMENT(#20,#142);
#142=IFCAXIS2PLACEMENT3D(#143,$,#30);
#143=IFCCARTESIANPOINT((0.,-0.3,0.));
#150=IFCQUANTITYLENGTH('Length',$,$,4.6);
#151=IFCQUANTITYLENGTH('Width',$,$,0.3);
#152=IFCELEMENTQUANTITY('GATQTO0000000000000152',$,'Qto_WallBaseQuantities',$,$,(#150,#151));
#153=IFCRELDEFINESBYPROPERTIES('GATRDP0000000000000153',$,$,$,(#140),#152);
#154=IFCPROPERTYSINGLEVALUE('UnitCost',$,IFCREAL(320.),$);
#155=IFCPROPERTYSET('GATPST0000000000000155',$,'GAT_Material',$,(#154));
#156=IFCRELDEFINESBYPROPERTIES('GATRDP0000000000000156',$,$,$,(#140),#155);
#160=IFCWALLSTANDARDCASE('GATWAL0000000000000160',$,'Wall-East',$,$,#161,$,$,$);
#161=IFCLOCALPLACEMENT(#20,#162);
#162=IFCAXIS2PLACEMENT3D(#163,$,#30);
#163=IFCCARTESIANPOINT((9.5,-0.3,0.));
#170=IFCQUANTITYLENGTH('Length',$,$,4.6);
#171=IFCQUANTITYLENGTH('Width',$,$,0.3);
#172=IFCELEMENTQUANTITY('GATQTO0000000000000172',$,'Qto_WallBaseQuantities',$,$,(#170,#171));
#173=IFCRELDEFINESBYPROPERTIES('GATRDP0000000000000173',$,$,$,(#160),#172);
#174=IFCPROPERTYSINGLEVALUE('UnitCost',$,IFCREAL(320.),$);
#175=IFCPROPERTYSET('GATPST0000000000000175',$,'GAT_Material',$,(#174));
#176=IFCRELDEFINESBYPROPERTIES('GATRDP0000000000000176',$,$,$,(#160),#175);
#180=IFCWALLSTANDARDCASE('GATWAL0000000000000180',$,'Wall-Party',$,$,#181,$,$,$);
#181=IFCLOCALPLACEMENT(#20,#182);
#182=IFCAXIS2PLACEMENT3D(#183,$,#30);
#183=IFCCARTESIANPOINT((5.2,0.,0.));
#184=IFCQUANTITYLENGTH('Length',$,$,4.);
#185=IFCQUANTITYLENGTH('Width',$,$,0.2);
#186=IFCELEMENTQUANTITY('GATQTO0000000000000186',$,'Qto_WallBaseQuantities',$,$,(#184,#185));
#187=IFCRELDEFINESBYPROPERTIES('GATRDP0000000000000187',$,$,$,(#180),#186);
#188=IFCPROPERTYSINGLEVALUE('UnitCost',$,IFCREAL(280.),$);
#189=IFCPROPERTYSET('GATPST0000000000000189',$,'GAT_Material',$,(#188));
#190=IFCRELDEFINESBYPROPERTIES('GATRDP0000000000000190',$,$,$,(#180),#189);
#191=IFCPROPERTYSINGLEVALUE('LengthSigma',$,IFCREAL(0.004),$);
#192=IFCPROPERTYSET('GATPST0000000000000192',$,'GAT_Uncertainty',$,(#191));
#193=IFCRELDEFINESBYPROPERTIES('GATRDP0000000000000193',$,$,$,(#180),#192);
#200=IFCOPENINGELEMENT('GATOPN0000000000000200',$,'Opening-1',$,$,#201,$,$,$);
#201=IFCLOCALPLACEMENT(#181,#202);
#202=IFCAXIS2PLACEMENT3D(#203,$,$);
#203=IFCCARTESIANPOINT((1.5,0.,0.));
#205=IFCQUANTITYLENGTH('Width',$,$,1.);
#206=IFCQUANTITYLENGTH('Height',$,$,2.1);
#207=IFCELEMENTQUANTITY('GATQTO0000000000000207',$,'Qto_OpeningBaseQuantities',$,$,(#205,#206));
#208=IFCRELDEFINESBYPROPERTIES('GATRDP0000000000000208',$,$,$,(#200),#207);
#210=IFCDOOR('GATDOR0000000000000210',$,'Door-1',$,$,#211,$,$,$,$,$,$,$);
#211=IFCLOCALPLACEMENT(#201,#212);
#212=IFCAXIS2PLACEMENT3D(#213,$,$);
#213=IFCCARTESIANPOINT((0.05,0.,0.));
#215=IFCQUANTITYLENGTH('Width',$,$,0.9);
#216=IFCQUANTITYLENGTH('Height',$,$,2.);
#217=IFCELEMENTQUANTITY('GATQTO0000000000000217',$,'Qto_DoorBaseQuantities',$,$,(#215,#216));
#218=IFCRELDEFINESBYPROPERTIES('GATRDP0000000000000218',$,$,$,(#210),#217);
#300=IFCSPACE('GATSPC0000000000000300',$,'Office-A',$,$,#301,$,$,$,$,$);
#301=IFCLOCALPLACEMENT(#20,#302);
#302=IFCAXIS2PLACEMENT3D(#303,$,$);
#303=IFCCARTESIANPOINT((0.,0.,0.));
#305=IFCQUANTITYLENGTH('Length',$,$,5.);
#306=IFCQUANTITYLENGTH('Width',$,$,4.);
#307=IFCELEMENTQUANTITY('GATQTO0000000000000307',$,'Qto_SpaceBaseQuantities',$,$,(#305,#306));
#308=IFCRELDEFINESBYPROPERTIES('GATRDP0000000000000308',$,$,$,(#300),#307);
#320=IFCSPACE('GATSPC0000000000000320',$,'Office-B',$,$,#321,$,$,$,$,$);
#321=IFCLOCALPLACEMENT(#20,#322);
#322=IFCAXIS2PLACEMENT3D(#323,$,$);
#323=IFCCARTESIANPOINT((5.2,0.,0.));
#325=IFCQUANTITYLENGTH('Length',$,$,4.);
#326=IFCQUANTITYLENGTH('Width',$,$,4.);
#327=IFCELEMENTQUANTITY('GATQTO0000000000000327',$,'Qto_SpaceBaseQuantities',$,$,(#325,#326));
#328=IFCRELDEFINESBYPROPERTIES('GATRDP0000000000000328',$,$,$,(#320),#327);
#400=IFCRELAGGREGATES('GATAGG0000000000000400',$,$,$,#1,(#5));
#401=IFCRELAGGREGATES('GATAGG0000000000000401',$,$,$,#5,(#15));
#402=IFCRELAGGREGATES('GATAGG0000000000000402',$,$,$,#15,(#300,#320));
#403=IFCRELCONTAINEDINSPATIALSTRUCTURE('GATCIS0000000000000403',$,$,$,(#100,#120,#140,#160,#180,#210),#15);
#404=IFCRELVOIDSELEMENT('GATVDS0000000000000404',$,$,$,#180,#200);
#405=IFCRELFILLSELEMENT('GATFLS0000000000000405',$,$,$,#200,#210);
#406=IFCRELSPACEBOUNDARY('GATRSB0000000000000406',$,$,$,#300,#100,$,.PHYSICAL.,.EXTERNAL.);
#407=IFCRELSPACEBOUNDARY('GATRSB0000000000000407',$,$,$,#300,#120,$,.PHYSICAL.,.EXTERNAL.);
#408=IFCRELSPACEBOUNDARY('GATRSB0000000000000408',$,$,$,#300,#140,$,.PHYSICAL.,.EXTERNAL.);
#409=IFCRELSPACEBOUNDARY('GATRSB0000000000000409',$,$,$,#300,#180,$,.PHYSICAL.,.INTERNAL.);
#410=IFCRELSPACEBOUNDARY('GATRSB0000000000000410',$,$,$,#320,#100,$,.PHYSICAL.,.EXTERNAL.);
#411=IFCRELSPACEBOUNDARY('GATRSB0000000000000411',$,$,$,#320,#120,$,.PHYSICAL.,.EXTERNAL.);
#412=IFCRELSPACEBOUNDARY('GATRSB0000000000000412',$,$,$,#320,#160,$,.PHYSICAL.,.EXTERNAL.);
#413=IFCRELSPACEBOUNDARY('GATRSB0000000000000413',$,$,$,#320,#180,$,.PHYSICAL.,.INTERNAL.);
ENDSEC;
END-ISO-10303-21;
